<?xml version="1.0" encoding="utf-8"?>
<svg viewBox="0 0 900 900" xmlns="http://www.w3.org/2000/svg">
  <defs>
    <linearGradient gradientUnits="userSpaceOnUse" x1="5479.615" y1="3649" x2="5479.615" y2="7883.523" id="gradient-2" gradientTransform="matrix(0.997317, -0.073206, 0.111994, 1.525747, -841.849631, -5877.674831)">
      <stop offset="0" style="stop-color: rgb(68.235% 93.333% 48.235%)"/>
      <stop offset="1" style="stop-color: rgb(0, 5, 79);"/>
    </linearGradient>
    <linearGradient gradientUnits="userSpaceOnUse" x1="5479.615" y1="3649" x2="5479.615" y2="7883.523" id="gradient-6">
      <stop offset="0" style="stop-color: #bada55"/>
      <stop offset="1" style="stop-color: #758d29"/>
    </linearGradient>
    <linearGradient gradientUnits="userSpaceOnUse" x1="3488.625" y1="6200" x2="3488.625" y2="7339.268" id="gradient-7">
      <stop offset="0" style="stop-color: #bada55"/>
      <stop offset="1" style="stop-color: #758d29"/>
    </linearGradient>
    <linearGradient gradientUnits="userSpaceOnUse" x1="3560.091" y1="4770.125" x2="3560.091" y2="6198.67" id="gradient-8">
      <stop offset="0" style="stop-color: #bada55"/>
      <stop offset="1" style="stop-color: #758d29"/>
    </linearGradient>
    <linearGradient gradientUnits="userSpaceOnUse" x1="4695.074" y1="1070" x2="4695.074" y2="5630" id="gradient-1" gradientTransform="matrix(0.999973, 0.007322, -0.005778, 0.789112, 6.308054, 257.141335)">
      <stop offset="0" style="stop-color: rgb(174, 238, 123);"/>
      <stop offset="1" style="stop-color: rgb(0% 0% 32.098%)"/>
    </linearGradient>
    <radialGradient gradientUnits="userSpaceOnUse" cx="4695.074" cy="3350" r="2939.074" id="gradient-0">
      <stop offset="0" style="stop-color: #bada55"/>
      <stop offset="1" style="stop-color: #758d29"/>
    </radialGradient>
    <linearGradient gradientUnits="userSpaceOnUse" x1="4919.817" y1="1065.548" x2="4919.817" y2="2238.095" id="gradient-10">
      <stop offset="0" style="stop-color: #bada55"/>
      <stop offset="1" style="stop-color: #758d29"/>
    </linearGradient>
  </defs>
  <g transform="matrix(0.10000000149011613, 0, 0, -0.10000000149011613, 1.4210854715202004e-14, 900)" fill="#000000" stroke="none" style="filter: none;">
    <g>
      <path d="M6435 7878 c-11 -7 -44 -34 -73 -62 l-54 -51 -485 -5 -486 -5 -13 -50 c-8 -27 -18 -68 -23 -90 -21 -94 -55 -203 -77 -247 -8 -14 -14 -32 -14 -38 0 -24 -101 -218 -125 -240 -26 -24 -33 -50 -15 -50 35 0 167 111 215 181 16 22 32 36 36 32 4 -4 13 -606 20 -1337 14 -1467 12 -1536 -39 -1645 -27 -57 -108 -148 -154 -172 -109 -57 -162 -77 -268 -96 -58 -10 -280 -24 -377 -23 -10 0 -13 -38 -13 -159 0 -88 4 -162 9 -165 5 -3 253 -6 552 -6 l544 -1 24 28 c48 57 57 69 91 123 58 90 81 133 115 220 9 25 23 60 31 78 8 18 14 40 14 49 0 9 6 39 14 67 41 147 40 126 46 1481 l5 1310 255 6 c140 3 261 7 268 8 10 1 12 88 11 419 0 229 -4 425 -7 434 -6 13 -11 15 -27 6z m-596 -333 c30 -30 35 -41 35 -83 0 -92 -75 -150 -162 -124 -52 16 -81 49 -87 103 -16 126 124 194 214 104z" style="stroke: url('#gradient-6'); fill-rule: nonzero; fill: url('#gradient-2');"/>
      <path d="M2787 7333 c-4 -3 -7 -199 -7 -434 0 -380 2 -428 16 -433 9 -3 129 -6 268 -6 186 0 257 -3 269 -12 13 -11 17 -34 19 -128 l3 -115 282 -3 282 -2 12 22 c8 14 14 99 17 235 3 118 8 216 12 218 5 3 39 -26 77 -63 82 -83 128 -116 149 -108 15 6 15 8 0 29 -23 32 -113 218 -121 250 -4 15 -11 30 -16 33 -5 3 -9 14 -9 24 0 11 -6 34 -14 52 -17 40 -39 119 -62 218 -10 41 -22 81 -27 88 -8 10 -106 13 -471 12 -254 0 -469 -1 -478 0 -10 0 -51 29 -92 65 -70 61 -94 74 -109 58z m803 -318 c47 -24 63 -51 64 -108 1 -109 -101 -172 -189 -117 -67 41 -84 149 -32 198 51 48 99 56 157 27z" style="stroke: url('#gradient-7'); fill-rule: nonzero; fill: rgb(0, 5, 79);"/>
      <path d="M4316 6191 c-3 -5 1 -14 9 -21 8 -7 15 -19 15 -27 0 -8 43 -57 95 -110 52 -53 95 -100 95 -105 0 -5 -432 -6 -1022 -2 -1017 6 -1023 6 -1101 -15 -130 -34 -335 -145 -426 -230 -27 -26 -28 -27 -34 -186 -10 -239 -9 -593 3 -600 5 -3 16 8 25 26 9 17 53 68 98 114 111 112 218 183 361 237 122 47 150 50 471 55 l310 5 25 27 c14 15 41 48 60 74 19 25 43 47 53 47 10 0 56 -25 103 -55 136 -89 110 -84 475 -92 295 -7 329 -10 347 -26 19 -17 20 -34 24 -268 2 -188 6 -252 16 -258 7 -4 204 -9 437 -10 412 -2 425 -2 425 16 0 11 -12 30 -26 44 -15 13 -44 46 -65 72 l-39 49 0 479 c0 463 -1 479 -19 489 -11 5 -30 10 -42 10 -12 0 -47 7 -78 16 -31 9 -81 23 -111 31 -68 19 -171 56 -247 90 -86 37 -112 51 -165 91 -61 45 -64 47 -72 33z m499 -581 c37 -23 70 -88 62 -122 -30 -120 -168 -152 -237 -56 -47 64 -37 121 30 177 33 27 102 28 145 1z" style="stroke: url('#gradient-8'); fill-rule: nonzero; fill: rgb(0, 5, 79);"/>
      <path d="M6207 5623 c-9 -9 -9 -845 1 -859 5 -8 90 -14 265 -19 141 -4 259 -11 262 -15 2 -4 5 -194 6 -422 1 -466 6 -431 -78 -540 -132 -172 -394 -346 -588 -388 -22 -5 -508 -12 -1080 -15 -572 -3 -1298 -7 -1612 -10 -601 -5 -592 -5 -663 36 -8 5 -26 14 -39 19 -31 14 -157 140 -171 171 -5 13 -14 31 -19 39 -17 29 -35 76 -52 140 -67 246 67 546 291 652 106 50 113 51 359 50 157 -1 237 -5 247 -13 10 -8 13 -61 14 -252 0 -133 4 -245 9 -250 9 -9 834 -27 859 -19 21 7 14 19 -53 96 l-65 74 0 480 c0 525 3 497 -61 507 -42 7 -144 33 -184 46 -16 6 -43 14 -60 19 -66 18 -156 54 -272 107 -21 10 -59 35 -85 55 -54 44 -73 48 -62 16 11 -37 44 -79 126 -161 43 -43 78 -81 78 -86 0 -8 -403 -21 -668 -21 -155 0 -256 -14 -330 -46 -18 -8 -40 -14 -48 -14 -9 0 -28 -6 -42 -14 -15 -7 -47 -23 -72 -35 -169 -82 -302 -193 -416 -346 -72 -98 -74 -102 -120 -195 -58 -118 -80 -180 -110 -315 -24 -109 -24 -408 0 -510 35 -148 59 -219 114 -335 38 -80 129 -226 171 -274 39 -43 163 -168 193 -193 120 -99 348 -216 473 -243 22 -5 52 -13 66 -18 14 -6 80 -14 145 -17 65 -4 128 -13 139 -19 11 -6 77 -70 148 -141 l127 -131 0 -415 0 -415 -140 -137 c-77 -76 -140 -144 -140 -151 0 -8 7 -17 16 -20 9 -3 199 -6 424 -6 329 0 410 3 419 13 8 10 12 214 13 703 l3 689 556 3 555 2 205 -211 204 -212 180 8 c99 4 196 8 215 9 l35 1 3 -342 2 -343 -136 -132 c-146 -142 -164 -165 -143 -179 8 -5 202 -9 431 -9 388 0 417 1 422 18 2 9 10 417 17 907 6 490 13 892 15 894 2 2 23 8 46 12 52 9 111 30 192 69 252 123 458 360 544 625 51 157 52 175 60 805 l7 595 35 -39 c68 -77 116 -121 172 -160 66 -45 96 -41 50 8 -61 64 -145 242 -195 416 -9 30 -23 78 -31 105 -8 28 -17 71 -21 98 -11 83 11 80 -508 72 -483 -8 -470 -9 -524 41 -40 37 -109 94 -115 94 -3 0 -8 -3 -11 -7z m783 -318 c36 -18 80 -81 80 -113 0 -32 -27 -83 -59 -109 -58 -49 -162 -19 -196 56 -46 103 75 218 175 166z m-3136 -534 c65 -43 84 -115 45 -178 -52 -83 -168 -84 -219 0 -68 111 67 248 174 178z" style="stroke-width: 0px; fill-rule: nonzero; stroke: url('#gradient-0'); paint-order: stroke; fill: url('#gradient-1');"/>
      <path d="M4894 2233 c-116 -3 -122 -5 -128 -26 -3 -12 -6 -204 -6 -427 l0 -405 -147 -147 c-97 -97 -142 -149 -132 -152 30 -9 829 -15 854 -6 l25 10 0 432 0 433 -148 148 c-118 118 -152 147 -172 145 -14 -1 -80 -4 -146 -5z" style="stroke: url('#gradient-10'); fill-rule: nonzero; fill: rgb(174, 238, 123);"/>
    </g>
  </g>
  <g transform="matrix(1.317330002784729, 0, 0, 1.317330002784729, 383.3430786132813, 603.3372192382812)"/>
</svg>